<svg xmlns="http://www.w3.org/2000/svg" width="18.976" height="18.971" viewBox="0 0 18.976 18.971"><g transform="translate(-0.013 -0.014)"><path d="M9.488,18.971a.325.325,0,0,1-.229-.094L6.67,16.287H3.008a.324.324,0,0,1-.324-.324V12.3L.095,9.713a.325.325,0,0,1,0-.458L2.684,6.665V3a.324.324,0,0,1,.324-.324H6.67L9.258.091a.333.333,0,0,1,.458,0L12.306,2.68h3.661A.324.324,0,0,1,16.291,3V6.665L18.88,9.255a.323.323,0,0,1,0,.458L16.291,12.3v3.661a.324.324,0,0,1-.324.324H12.306L9.716,18.877A.325.325,0,0,1,9.488,18.971ZM3.332,3.328V6.8a.325.325,0,0,1-.094.229L.782,9.484l2.455,2.455a.325.325,0,0,1,.094.229v3.471H6.8a.323.323,0,0,1,.229.1L9.488,18.19l2.454-2.455a.327.327,0,0,1,.229-.1h3.472V12.168a.322.322,0,0,1,.094-.229l2.455-2.455L15.738,7.029a.322.322,0,0,1-.094-.229V3.328H12.172a.325.325,0,0,1-.229-.095L9.488.779,7.033,3.234a.324.324,0,0,1-.229.095ZM10.94,13.889a1.556,1.556,0,1,1,1.1-.456A1.547,1.547,0,0,1,10.94,13.889Zm0-2.468a.911.911,0,1,0,.644.267A.9.9,0,0,0,10.94,11.421ZM6.065,12.452a.323.323,0,0,1-.2-.58l6.845-5.29a.324.324,0,0,1,.4.513L6.263,12.385A.321.321,0,0,1,6.065,12.452Zm1.97-4.259a1.558,1.558,0,1,1,1.1-.456A1.547,1.547,0,0,1,8.035,8.194Zm0-2.466a.91.91,0,1,0,.644.266A.9.9,0,0,0,8.035,5.728Z" transform="translate(0.012 0.014)"/></g></svg>